<svg width="800" height="800" viewBox="0 0 400 400" xmlns="http://www.w3.org/2000/svg">
    <defs>
        <!-- More saturated background gradient -->
        <linearGradient id="bgGradient" x1="0%" y1="0%" x2="100%" y2="100%">
            <stop offset="0%" stop-color="#FFB6D9"/> <!-- Hot Pink Tint -->
            <stop offset="50%" stop-color="#C9E4FF"/> <!-- Baby Blue -->
            <stop offset="100%" stop-color="#FFE5F1"/> <!-- Pink Lace -->
        </linearGradient>
        
        <!-- Frame gradient with better contrast -->
        <linearGradient id="frameGradient" x1="0%" y1="0%" x2="100%" y2="100%">
            <stop offset="0%" stop-color="#FF69B4"/> <!-- Hot Pink -->
            <stop offset="100%" stop-color="#FF1493"/> <!-- Deep Pink -->
        </linearGradient>
        
        <!-- High contrast silhouette -->
        <linearGradient id="silhouetteGradient" x1="0%" y1="0%" x2="100%" y2="100%">
            <stop offset="0%" stop-color="#2C1810"/> <!-- Dark Brown -->
            <stop offset="100%" stop-color="#4A2511"/> <!-- Rich Brown -->
        </linearGradient>
        
        <!-- Soft glow effect -->
        <filter id="softGlow" x="-20%" y="-20%" width="140%" height="140%">
            <feGaussianBlur in="SourceGraphic" stdDeviation="5" result="blur"/>
            <feColorMatrix in="blur" type="matrix" values="1 0 0 0 0  0 1 0 0 0  0 0 1 0 0  0 0 0 15 -5" result="glow"/>
            <feBlend in="SourceGraphic" in2="glow" mode="soft-light"/>
        </filter>
        
        <!-- Lace pattern for the frame -->
        <pattern id="lacePattern" width="40" height="40" patternUnits="userSpaceOnUse">
            <circle cx="20" cy="20" r="5" fill="#FF1493" opacity="0.4"/>
            <circle cx="10" cy="10" r="3" fill="#FF1493" opacity="0.4"/>
            <circle cx="30" cy="10" r="3" fill="#FF1493" opacity="0.4"/>
            <circle cx="10" cy="30" r="3" fill="#FF1493" opacity="0.4"/>
            <circle cx="30" cy="30" r="3" fill="#FF1493" opacity="0.4"/>
        </pattern>
    </defs>
    
    <!-- Background -->
    <rect width="400" height="400" fill="url(#bgGradient)"/>
    
    <!-- Decorative frame (behind the silhouette) -->
    <rect x="40" y="40" width="320" height="320" rx="20" fill="none" stroke="url(#frameGradient)" stroke-width="10" opacity="0.9"/>
    <rect x="40" y="40" width="320" height="320" rx="20" fill="none" stroke="url(#lacePattern)" stroke-width="10" opacity="0.6"/>
    
    <!-- Decorative corner ribbon elements -->
    <g opacity="0.9">
        <!-- Top-left ribbon -->
        <path d="M30,50 L40,40 L50,30 Q55,35 50,40 L45,45 Q50,50 45,55 L40,50 Q35,55 30,50 Z" fill="#FF1493"/>
        <path d="M30,50 L40,40 L50,30" fill="none" stroke="#FF69B4" stroke-width="2"/>
        
        <!-- Top-right ribbon -->
        <path d="M370,50 L360,40 L350,30 Q345,35 350,40 L355,45 Q350,50 355,55 L360,50 Q365,55 370,50 Z" fill="#FF1493"/>
        <path d="M370,50 L360,40 L350,30" fill="none" stroke="#FF69B4" stroke-width="2"/>
        
        <!-- Bottom-left ribbon -->
        <path d="M30,350 L40,360 L50,370 Q55,365 50,360 L45,355 Q50,350 45,345 L40,350 Q35,345 30,350 Z" fill="#FF1493"/>
        <path d="M30,350 L40,360 L50,370" fill="none" stroke="#FF69B4" stroke-width="2"/>
        
        <!-- Bottom-right ribbon -->
        <path d="M370,350 L360,360 L350,370 Q345,365 350,360 L355,355 Q350,350 355,345 L360,350 Q365,345 370,350 Z" fill="#FF1493"/>
        <path d="M370,350 L360,360 L350,370" fill="none" stroke="#FF69B4" stroke-width="2"/>
    </g>
    
    <!-- Complete Lolita fashion silhouette with full body -->
    <g transform="translate(200, 220)" filter="url(#softGlow)">
        <!-- Legs with frilly socks -->
        <rect x="-12" y="70" width="10" height="45" fill="url(#silhouetteGradient)"/>
        <rect x="2" y="70" width="10" height="45" fill="url(#silhouetteGradient)"/>
        
        <!-- Frilly sock details -->
        <path d="M-12,105 Q-7,100 -2,105" fill="none" stroke="#FFFFFF" stroke-width="2" opacity="0.7"/>
        <path d="M2,105 Q7,100 12,105" fill="none" stroke="#FFFFFF" stroke-width="2" opacity="0.7"/>
        
        <!-- Shoes with bows -->
        <ellipse cx="-7" cy="118" rx="10" ry="6" fill="url(#silhouetteGradient)"/>
        <ellipse cx="7" cy="118" rx="10" ry="6" fill="url(#silhouetteGradient)"/>
        <path d="M-12,118 Q-7,115 -2,118 Q-7,121 -12,118 Z" fill="#FF1493"/>
        <path d="M2,118 Q7,115 12,118 Q7,121 2,118 Z" fill="#FF1493"/>
        
        <!-- Bell-shaped JSK dress with petticoat -->
        <path d="M-60,0 Q-65,20 -70,40 L-75,70 L75,70 L70,40 Q65,20 60,0 Q55,-20 50,-30 L-50,-30 Q-55,-20 -60,0 Z" 
              fill="url(#silhouetteGradient)"/>
        
        <!-- Dress bodice -->
        <path d="M-30,-30 L-40,0 L40,0 L30,-30 Q20,-40 0,-42 Q-20,-40 -30,-30 Z" 
              fill="url(#silhouetteGradient)"/>
        
        <!-- White apron/pinafore detail -->
        <path d="M-25,-20 L-30,10 Q0,20 30,10 L25,-20 Q15,-28 0,-30 Q-15,-28 -25,-20 Z" 
              fill="#FFFFFF" opacity="0.85"/>
        
        <!-- Puffed sleeves -->
        <ellipse cx="-35" cy="-20" rx="15" ry="18" fill="url(#silhouetteGradient)"/>
        <ellipse cx="35" cy="-20" rx="15" ry="18" fill="url(#silhouetteGradient)"/>
        
        <!-- Arms -->
        <rect x="-48" y="-10" width="8" height="25" rx="4" fill="url(#silhouetteGradient)"/>
        <rect x="40" y="-10" width="8" height="25" rx="4" fill="url(#silhouetteGradient)"/>
        
        <!-- Neck -->
        <rect x="-8" y="-50" width="16" height="12" rx="4" fill="url(#silhouetteGradient)"/>
        
        <!-- Head -->
        <circle cx="0" cy="-60" r="22" fill="url(#silhouetteGradient)"/>
        
        <!-- Long hair flowing down -->
        <path d="M-22,-60 Q-30,-55 -28,-45 L-25,-30 Q-22,-20 -18,-30 L-15,-45 Q-12,-55 -22,-60 Z" fill="url(#silhouetteGradient)"/>
        <path d="M22,-60 Q30,-55 28,-45 L25,-30 Q22,-20 18,-30 L15,-45 Q12,-55 22,-60 Z" fill="url(#silhouetteGradient)"/>
        
        <!-- Twin tails / pigtails hairstyle -->
        <ellipse cx="-28" cy="-55" rx="12" ry="25" fill="url(#silhouetteGradient)"/>
        <ellipse cx="28" cy="-55" rx="12" ry="25" fill="url(#silhouetteGradient)"/>
        
        <!-- Bangs -->
        <path d="M-18,-75 Q-10,-80 0,-82 Q10,-80 18,-75 L15,-70 Q10,-72 0,-74 Q-10,-72 -15,-70 Z" fill="url(#silhouetteGradient)"/>
        
        <!-- Hair ribbons/bows -->
        <path d="M-38,-60 Q-48,-55 -43,-45 Q-38,-50 -33,-55 Q-38,-60 -38,-60 Z" fill="#FF1493"/>
        <path d="M38,-60 Q48,-55 43,-45 Q38,-50 33,-55 Q38,-60 38,-60 Z" fill="#FF1493"/>
        
        <!-- Large decorative headbow -->
        <path d="M-15,-80 Q-25,-85 -30,-75 L-20,-70 L-10,-80 L0,-75 L10,-80 L20,-70 L30,-75 Q25,-85 15,-80 Q10,-90 0,-92 Q-10,-90 -15,-80 Z" 
              fill="#FF1493" opacity="0.9"/>
        
        <!-- Lace collar -->
        <ellipse cx="0" cy="-40" rx="18" ry="6" fill="#FFFFFF" opacity="0.9"/>
        
        <!-- Ruffle details on skirt -->
        <path d="M-70,40 Q-60,35 -50,40 Q-40,35 -30,40 Q-20,35 -10,40 Q0,35 10,40 Q20,35 30,40 Q40,35 50,40 Q60,35 70,40" 
              fill="none" stroke="#FFFFFF" stroke-width="3" opacity="0.7"/>
        
        <!-- Heart accessory -->
        <path d="M-5,-52 Q-10,-57 -5,-62 Q0,-57 5,-62 Q10,-57 5,-52 Q0,-47 -5,-52 Z" fill="#FF69B4"/>
    </g>
    
    <!-- Floating hearts animation (like sprinkles!) -->
    <g opacity="0.85">
        <path d="M100,100 Q110,90 100,80 Q90,90 100,100 Z" fill="#FF1493">
            <animate attributeName="opacity" values="0.7;1;0.7" dur="3s" repeatCount="indefinite"/>
            <animateTransform attributeName="transform" type="translate" values="0,0;0,-10;0,0" dur="4s" repeatCount="indefinite"/>
        </path>
        <path d="M300,150 Q310,140 300,130 Q290,140 300,150 Z" fill="#FF69B4">
            <animate attributeName="opacity" values="0.7;1;0.7" dur="4s" repeatCount="indefinite"/>
            <animateTransform attributeName="transform" type="translate" values="0,0;0,-15;0,0" dur="5s" repeatCount="indefinite"/>
        </path>
        <path d="M150,250 Q160,240 150,230 Q140,240 150,250 Z" fill="#FF1493">
            <animate attributeName="opacity" values="0.7;1;0.7" dur="5s" repeatCount="indefinite"/>
            <animateTransform attributeName="transform" type="translate" values="0,0;0,-12;0,0" dur="6s" repeatCount="indefinite"/>
        </path>
        <path d="M320,280 Q330,270 320,260 Q310,270 320,280 Z" fill="#FF69B4">
            <animate attributeName="opacity" values="0.8;1;0.8" dur="3.5s" repeatCount="indefinite"/>
            <animateTransform attributeName="transform" type="translate" values="0,0;0,-8;0,0" dur="4.5s" repeatCount="indefinite"/>
        </path>
        <path d="M80,200 Q90,190 80,180 Q70,190 80,200 Z" fill="#FF1493">
            <animate attributeName="opacity" values="0.75;1;0.75" dur="4.5s" repeatCount="indefinite"/>
            <animateTransform attributeName="transform" type="translate" values="0,0;0,-14;0,0" dur="5.5s" repeatCount="indefinite"/>
        </path>
    </g>
</svg>
