<svg width="400" height="400" viewBox="0 0 400 400" xmlns="http://www.w3.org/2000/svg">
    <defs>
        <!-- Soft pastel gradient background -->
        <linearGradient id="bgGradient" x1="0%" y1="0%" x2="100%" y2="100%">
            <stop offset="0%" stop-color="#FFF0F5"/> <!-- Lavender Blush -->
            <stop offset="50%" stop-color="#F0F8FF"/> <!-- Alice Blue -->
            <stop offset="100%" stop-color="#FFFACD"/> <!-- Lemon Chiffon -->
        </linearGradient>
        
        <!-- Frame gradient -->
        <linearGradient id="frameGradient" x1="0%" y1="0%" x2="100%" y2="100%">
            <stop offset="0%" stop-color="#FFB6C1"/> <!-- Light Pink -->
            <stop offset="100%" stop-color="#FFD700"/> <!-- Gold -->
        </linearGradient>
        
        <!-- Silhouette gradient -->
        <linearGradient id="silhouetteGradient" x1="0%" y1="0%" x2="100%" y2="100%">
            <stop offset="0%" stop-color="#8B4513"/> <!-- SaddleBrown -->
            <stop offset="100%" stop-color="#A0522D"/> <!-- Sienna -->
        </linearGradient>
        
        <!-- Soft glow effect -->
        <filter id="softGlow" x="-20%" y="-20%" width="140%" height="140%">
            <feGaussianBlur in="SourceGraphic" stdDeviation="5" result="blur"/>
            <feColorMatrix in="blur" type="matrix" values="1 0 0 0 0  0 1 0 0 0  0 0 1 0 0  0 0 0 15 -5" result="glow"/>
            <feBlend in="SourceGraphic" in2="glow" mode="soft-light"/>
        </filter>
        
        <!-- Lace pattern for the frame -->
        <pattern id="lacePattern" width="40" height="40" patternUnits="userSpaceOnUse">
            <circle cx="20" cy="20" r="5" fill="#FFB6C1" opacity="0.3"/>
            <circle cx="10" cy="10" r="3" fill="#FFB6C1" opacity="0.3"/>
            <circle cx="30" cy="10" r="3" fill="#FFB6C1" opacity="0.3"/>
            <circle cx="10" cy="30" r="3" fill="#FFB6C1" opacity="0.3"/>
            <circle cx="30" cy="30" r="3" fill="#FFB6C1" opacity="0.3"/>
        </pattern>
    </defs>
    
    <!-- Background -->
    <rect width="400" height="400" fill="url(#bgGradient)"/>
    
    <!-- Decorative frame (behind the silhouette) -->
    <rect x="40" y="40" width="320" height="320" rx="20" fill="none" stroke="url(#frameGradient)" stroke-width="8" opacity="0.8"/>
    <rect x="40" y="40" width="320" height="320" rx="20" fill="none" stroke="url(#lacePattern)" stroke-width="8" opacity="0.5"/>
    
    <!-- Decorative corner elements -->
    <g opacity="0.7">
        <!-- Top-left corner -->
        <path d="M40,40 Q60,30 80,40" fill="none" stroke="#FFB6C1" stroke-width="3"/>
        <path d="M40,40 Q30,60 40,80" fill="none" stroke="#FFB6C1" stroke-width="3"/>
        
        <!-- Top-right corner -->
        <path d="M360,40 Q340,30 320,40" fill="none" stroke="#FFB6C1" stroke-width="3"/>
        <path d="M360,40 Q370,60 360,80" fill="none" stroke="#FFB6C1" stroke-width="3"/>
        
        <!-- Bottom-left corner -->
        <path d="M40,360 Q60,370 80,360" fill="none" stroke="#FFB6C1" stroke-width="3"/>
        <path d="M40,360 Q30,340 40,320" fill="none" stroke="#FFB6C1" stroke-width="3"/>
        
        <!-- Bottom-right corner -->
        <path d="M360,360 Q340,370 320,360" fill="none" stroke="#FFB6C1" stroke-width="3"/>
        <path d="M360,360 Q370,340 360,320" fill="none" stroke="#FFB6C1" stroke-width="3"/>
    </g>
    
    <!-- Silhouette of a baker girl -->
    <g transform="translate(200, 200)" filter="url(#softGlow)">
        <!-- Body and dress -->
        <path d="M-40,40 Q-50,60 -40,80 L-20,100 L20,100 L40,80 Q50,60 40,40 L20,20 L-20,20 Z" 
              fill="url(#silhouetteGradient)" opacity="0.9"/>
        
        <!-- Apron -->
        <path d="M-30,40 Q-20,60 0,70 Q20,60 30,40 L20,20 L-20,20 Z" 
              fill="#FFFFFF" opacity="0.8"/>
        
        <!-- Head -->
        <circle cx="0" cy="-30" r="25" fill="url(#silhouetteGradient)"/>
        
        <!-- Hair -->
        <path d="M-25,-30 Q-35,-40 -25,-50 Q-15,-60 0,-55 Q15,-60 25,-50 Q35,-40 25,-30" 
              fill="url(#silhouetteGradient)"/>
        
        <!-- Chef hat -->
        <path d="M-20,-55 Q0,-70 20,-55 L15,-40 L-15,-40 Z" fill="#FFFFFF" opacity="0.9"/>
        <ellipse cx="0" cy="-55" rx="25" ry="8" fill="#FFFFFF" opacity="0.9"/>
        
        <!-- Rolling pin -->
        <rect x="-60" y="10" width="80" height="8" rx="4" fill="#8B4513"/>
        <circle cx="-60" cy="14" r="6" fill="#8B4513"/>
        <circle cx="20" cy="14" r="6" fill="#8B4513"/>
        
        <!-- Heart in hand -->
        <path d="M30,50 Q40,40 30,30 Q20,40 30,50 Z" fill="#FF69B4" opacity="0.8"/>
    </g>
    
    <!-- Floating hearts animation -->
    <g opacity="0.7">
        <path d="M100,100 Q110,90 100,80 Q90,90 100,100 Z" fill="#FFB6C1">
            <animate attributeName="opacity" values="0.7;1;0.7" dur="3s" repeatCount="indefinite"/>
            <animateTransform attributeName="transform" type="translate" values="0,0;0,-10;0,0" dur="4s" repeatCount="indefinite"/>
        </path>
        <path d="M300,150 Q310,140 300,130 Q290,140 300,150 Z" fill="#FFB6C1">
            <animate attributeName="opacity" values="0.7;1;0.7" dur="4s" repeatCount="indefinite"/>
            <animateTransform attributeName="transform" type="translate" values="0,0;0,-15;0,0" dur="5s" repeatCount="indefinite"/>
        </path>
        <path d="M150,250 Q160,240 150,230 Q140,240 150,250 Z" fill="#FFB6C1">
            <animate attributeName="opacity" values="0.7;1;0.7" dur="5s" repeatCount="indefinite"/>
            <animateTransform attributeName="transform" type="translate" values="0,0;0,-12;0,0" dur="6s" repeatCount="indefinite"/>
        </path>
    </g>
    
    <!-- Text area with proper spacing -->
    <rect x="80" y="320" width="240" height="70" rx="10" fill="#FFFFFF" opacity="0.7" filter="url(#softGlow)"/>
    
    <!-- Main title -->
    <text x="200" y="350" text-anchor="middle" font-family="Georgia, serif" font-size="28" fill="#8B4513" opacity="0.9" font-weight="bold">
        Homemade Heart
    </text>
    
    <!-- Subtitle -->
    <text x="200" y="375" text-anchor="middle" font-family="Georgia, serif" font-size="16" fill="#A0522D" opacity="0.9" font-style="italic">
        Baked with Love
    </text>
</svg>
