<svg width="200" height="200" viewBox="0 0 200 200" xmlns="http://www.w3.org/2000/svg">
  <defs>
    <linearGradient id="lensGrad" x1="0%" y1="0%" x2="100%" y2="100%">
      <stop offset="0%" stop-color="#66B2FF" stop-opacity="0.9"/>
      <stop offset="100%" stop-color="#004080" stop-opacity="0.9"/>
    </linearGradient>
    <linearGradient id="fovGrad" x1="0%" y1="0%" x2="100%" y2="100%">
      <stop offset="0%" stop-color="#FF8080" stop-opacity="0.7"/>
      <stop offset="100%" stop-color="#B30000" stop-opacity="0.7"/>
    </linearGradient>
    <filter id="lensShadow" x="-50%" y="-50%" width="200%" height="200%">
      <feGaussianBlur in="SourceAlpha" stdDeviation="2"/>
      <feOffset dx="2" dy="2" result="offsetblur"/>
      <feComponentTransfer>
        <feFuncA type="linear" slope="0.3"/>
      </feComponentTransfer>
      <feMerge>
        <feMergeNode/>
        <feMergeNode in="SourceGraphic"/>
      </feMerge>
    </filter>
  </defs>

  <!-- Background Circle -->
  <circle cx="100" cy="100" r="90" fill="#F5FAFF" stroke="#D8E0EA" stroke-width="2"/>

  <!-- Camera Lens with Depth -->
  <circle cx="100" cy="100" r="45" fill="url(#lensGrad)" filter="url(#lensShadow)" opacity="0.85"/>
  <circle cx="100" cy="100" r="40" fill="none" stroke="#FFFFFF" stroke-width="3" opacity="0.7"/>
  <circle cx="100" cy="100" r="32" fill="none" stroke="#E6F0FA" stroke-width="2" opacity="0.9"/>
  <circle cx="100" cy="100" r="20" fill="none" stroke="#FFFFFF" stroke-width="1.5"/>

  <!-- Clear Field of View Cone -->
  <path d="M 100 100 L 180 60 L 180 140 Z" fill="url(#fovGrad)" fill-opacity="0.2" stroke="url(#fovGrad)" stroke-width="2" stroke-opacity="0.8"/>
  
  <!-- Focal Length Arrow (Horizontal) -->
  <line x1="100" y1="100" x2="180" y2="100" stroke="#2A2A2A" stroke-width="2" stroke-dasharray="4,2"/>
  <polygon points="180,100 176,96 176,104" fill="#2A2A2A"/>
  
  <!-- Field of View Angle Indicators -->
  <path d="M 100 100 L 160 70" stroke="#FF4D4D" stroke-width="2" stroke-dasharray="2,2"/>
  <path d="M 100 100 L 160 130" stroke="#FF4D4D" stroke-width="2" stroke-dasharray="2,2"/>
  
  <!-- Angle Arc -->
  <path d="M 130 85 A 25 25 0 0 1 130 115" fill="none" stroke="#FF4D4D" stroke-width="3"/>
  
  <!-- Central Focus Point -->
  <circle cx="100" cy="100" r="4" fill="#FFEA00" stroke="#2A2A2A" stroke-width="1.5"/>
  
  <!-- Focal Point -->
  <circle cx="180" cy="100" r="4" fill="#FFEA00" stroke="#2A2A2A" stroke-width="1.5"/>

  <!-- Angle Markers (Enhanced Contrast) -->
  <line x1="85" y1="25" x2="90" y2="30" stroke="#FF4D4D" stroke-width="3" stroke-linecap="round"/>
  <line x1="115" y1="25" x2="110" y2="30" stroke="#FF4D4D" stroke-width="3" stroke-linecap="round"/>
</svg>
