<svg width="400" height="400" viewBox="0 0 400 400" xmlns="http://www.w3.org/2000/svg">
    <defs>
        <!-- Soft, warm gradient like a summer sky -->
        <linearGradient id="mainGradient" x1="0%" y1="0%" x2="100%" y2="100%">
            <stop offset="0%" stop-color="#FFE8F0" stop-opacity="0.9"/> <!-- Blush Pink -->
            <stop offset="50%" stop-color="#E6F7FF" stop-opacity="0.8"/> <!-- Soft Blue -->
            <stop offset="100%" stop-color="#FFF0E6" stop-opacity="0.9"/> <!-- Cream -->
        </linearGradient>

        <!-- Gingham pattern for the background -->
        <pattern id="ginghamPattern" width="20" height="20" patternUnits="userSpaceOnUse">
            <rect width="20" height="20" fill="#FFF5F5"/>
            <path d="M0 0 L20 0 L20 20" fill="none" stroke="#FFE8E8" stroke-width="4"/>
            <path d="M0 0 L0 20 L20 20" fill="none" stroke="#FFE8E8" stroke-width="4"/>
        </pattern>

        <!-- A simple, soft glow -->
        <filter id="softGlow">
            <feGaussianBlur in="SourceGraphic" stdDeviation="3" result="blur"/>
            <feColorMatrix in="blur" type="matrix" values="1 0 0 0 0  0 1 0 0 0  0 0 1 0 0  0 0 0 15 -5" result="glow"/>
            <feBlend in="SourceGraphic" in2="glow" mode="soft-light"/>
        </filter>

        <!-- Clip path for the main circle -->
        <clipPath id="circleClip">
            <circle cx="200" cy="200" r="130"/>
        </clipPath>
    </defs>

    <!-- Background: Gingham -->
    <rect width="400" height="400" fill="url(#ginghamPattern)"/>

    <!-- Soft, warm background circle -->
    <circle cx="200" cy="200" r="150" fill="url(#mainGradient)" opacity="0.7" filter="url(#softGlow)"/>

    <!-- Central imagery: A heart and a rolling pin -->
    <g clip-path="url(#circleClip)" filter="url(#softGlow)">
        <!-- Soft, swirling pattern reminiscent of rolling dough -->
        <path d="M150,180 Q200,150 250,180 Q280,200 250,230 Q200,260 150,230 Q120,200 150,180 Z" fill="none" stroke="#FFB6C1" stroke-width="8" stroke-linecap="round" opacity="0.6">
            <animate attributeName="d" dur="10s" values="
                M150,180 Q200,150 250,180 Q280,200 250,230 Q200,260 150,230 Q120,200 150,180 Z;
                M155,175 Q200,155 245,185 Q275,205 245,225 Q200,255 155,225 Q125,205 155,175 Z;
                M150,180 Q200,150 250,180 Q280,200 250,230 Q200,260 150,230 Q120,200 150,180 Z" repeatCount="indefinite"/>
        </path>

        <!-- A simple heart -->
        <path d="M200 180 Q220 160 240 180 Q240 200 220 220 L200 240 L180 220 Q160 200 160 180 Q180 160 200 180 Z" fill="#FF69B4" opacity="0.8">
            <animate attributeName="opacity" values="0.8;0.9;0.8" dur="4s" repeatCount="indefinite"/>
        </path>

        <!-- Floating "spice" or "flour" particles -->
        <g opacity="0.7">
            <circle cx="170" cy="150" r="2" fill="#A0522D"> <!-- Sienna Brown -->
                <animate attributeName="cy" values="150;170;150" dur="5s" repeatCount="indefinite"/>
            </circle>
            <circle cx="230" cy="230" r="2" fill="#DEB887"> <!-- Burly Wood -->
                <animate attributeName="cy" values="230;250;230" dur="4s" repeatCount="indefinite"/>
            </circle>
            <circle cx="150" cy="210" r="2" fill="#A0522D">
                <animate attributeName="cy" values="210;230;210" dur="6s" repeatCount="indefinite"/>
            </circle>
        </g>
    </g>

    <!-- Outer ring, like a pie crust or embroidered edge -->
    <circle cx="200" cy="200" r="140" fill="none" stroke="#DEB887" stroke-width="6" stroke-dasharray="5,5" opacity="0.8">
        <animateTransform attributeName="transform" type="rotate" from="0 200 200" to="360 200 200" dur="30s" repeatCount="indefinite"/>
    </circle>

    <!-- Main text in a soft, script-like style -->
    <text x="200" y="320" text-anchor="middle" font-family="cursive" font-size="28" fill="#8B4513" opacity="0.9" font-weight="bold">
        Homemade Heart
        <animate attributeName="opacity" values="0.9;0.7;0.9" dur="4s" repeatCount="indefinite"/>
    </text>

    <!-- Subtext -->
    <text x="200" y="355" text-anchor="middle" font-family="serif" font-size="16" fill="#A0522D" opacity="0.9" font-style="italic">
        Baked with Love
    </text>

    <!-- Corner accents: Little flourishes -->
    <g opacity="0.8">
        <!-- Top-left: A simple flower -->
        <g transform="translate(50, 50) scale(0.8)">
            <circle cx="0" cy="0" r="5" fill="#FF69B4"/>
            <circle cx="0" cy="0" r="8" fill="none" stroke="#FFB6C1" stroke-width="2"/>
        </g>
        <!-- Top-right: A little star (like on a pie) -->
        <g transform="translate(350, 50)">
            <path d="M0,-5 L2,2 L5,0 L0,0 L-2,2 Z" fill="#FFD700"/>
        </g>
        <!-- Bottom-left: A heart -->
        <g transform="translate(50, 350)">
            <path d="M0,0 Q2,-2 4,0 Q4,2 2,4 L0,6 L-2,4 Q-4,2 -4,0 Q-2,-2 0,0 Z" fill="#FF69B4" opacity="0.7"/>
        </g>
        <!-- Bottom-right: Another flower -->
        <g transform="translate(350, 350) scale(0.8)">
            <circle cx="0" cy="0" r="5" fill="#FF69B4"/>
            <circle cx="0" cy="0" r="8" fill="none" stroke="#FFB6C1" stroke-width="2"/>
        </g>
    </g>
</svg>
