<svg width="800" height="800" viewBox="0 0 400 400" xmlns="http://www.w3.org/2000/svg">
    <style>
        :root {
            /* Enhanced Angelic Pretty Color Palette */
            --color-light-pink: #fff0f5;
            --color-mid-pink: #ffe4ec;
            --color-dress-start: #ff9eb5;
            --color-dress-end: #ff85a2;
            --color-lace-start: #fff8fb;
            --color-pearl-shadow: #ffd1dc;
            
            /* Enhanced Accent Palette */
            --color-contrast-start: #ff69b4;
            --color-contrast-end: #c71585;
            --color-metallic-start: #f8e5b4;
            --color-metallic-end: #d1b069;
            --color-skin: #ffe8d6;
            --color-hair: #d4a574;
        }
    </style>
    <defs>
        <linearGradient id="bgGradient" x1="0%" y1="0%" x2="100%" y2="100%">
            <stop offset="0%" stop-color="var(--color-light-pink)"/>
            <stop offset="100%" stop-color="var(--color-mid-pink)"/>
        </linearGradient>
        
        <linearGradient id="dressGradient" x1="0%" y1="0%" x2="100%" y2="100%">
            <stop offset="0%" stop-color="var(--color-dress-start)"/>
            <stop offset="100%" stop-color="var(--color-dress-end)"/>
        </linearGradient>
        
        <linearGradient id="laceGradient" x1="0%" y1="0%" x2="100%" y2="100%">
            <stop offset="0%" stop-color="var(--color-lace-start)"/>
            <stop offset="100%" stop-color="var(--color-pearl-shadow)"/>
        </linearGradient>
        
        <radialGradient id="pearlGradient" cx="30%" cy="30%" r="70%">
            <stop offset="0%" stop-color="var(--color-lace-start)"/>
            <stop offset="100%" stop-color="var(--color-pearl-shadow)"/>
        </radialGradient>
        
        <radialGradient id="jewelGradient" cx="30%" cy="30%" r="70%">
            <stop offset="0%" stop-color="var(--color-contrast-start)"/>
            <stop offset="100%" stop-color="var(--color-contrast-end)"/>
        </radialGradient>
        
        <linearGradient id="metallicGradient" x1="0%" y1="0%" x2="100%" y2="100%">
            <stop offset="0%" stop-color="var(--color-metallic-start)"/>
            <stop offset="100%" stop-color="var(--color-metallic-end)"/>
        </linearGradient>

        <linearGradient id="skinGradient" x1="0%" y1="0%" x2="100%" y2="100%">
            <stop offset="0%" stop-color="var(--color-skin)"/>
            <stop offset="100%" stop-color="#f8d9c2"/>
        </linearGradient>

        <linearGradient id="hairGradient" x1="0%" y1="0%" x2="100%" y2="100%">
            <stop offset="0%" stop-color="var(--color-hair)"/>
            <stop offset="100%" stop-color="#c49565"/>
        </linearGradient>

        <pattern id="smallLace" width="15" height="15" patternUnits="userSpaceOnUse">
            <circle cx="7.5" cy="7.5" r="1.5" fill="var(--color-dress-end)" opacity="0.7"/>
        </pattern>
        
        <pattern id="corsetPattern" width="8" height="8" patternUnits="userSpaceOnUse">
            <line x1="0" y1="0" x2="8" y2="8" stroke="var(--color-dress-end)" stroke-width="0.5" opacity="0.6"/>
            <line x1="8" y1="0" x2="0" y2="8" stroke="var(--color-dress-end)" stroke-width="0.5" opacity="0.6"/>
        </pattern>
        
        <filter id="softShadow" x="-20%" y="-20%" width="140%" height="140%">
            <feGaussianBlur in="SourceGraphic" stdDeviation="2" result="blur"/>
            <feColorMatrix in="blur" type="matrix" values="0 0 0 0 0.9 0 0 0 0 0.6 0 0 0 0 0.7 0 0 0 0.2 0" result="shadow"/>
            <feBlend in="SourceGraphic" in2="shadow" mode="normal"/>
        </filter>

        <g id="cornerOrnament" opacity="0.8">
            <circle cx="0" cy="0" r="12" fill="none" stroke="url(#metallicGradient)" stroke-width="1.5"/>
            <circle cx="0" cy="0" r="8" fill="none" stroke="url(#jewelGradient)" stroke-width="1"/>
            <circle cx="0" cy="0" r="4" fill="url(#pearlGradient)"/>
        </g>
    </defs>

    <!-- Background -->
    <rect width="400" height="400" fill="url(#bgGradient)"/>
    
    <!-- Frame -->
    <rect x="25" y="25" width="350" height="350" rx="20" fill="none" stroke="url(#metallicGradient)" stroke-width="6" opacity="0.8"/>
    <rect x="25" y="25" width="350" height="350" rx="20" fill="none" stroke="url(#smallLace)" stroke-width="4" opacity="0.5"/>
    
    <!-- Corner ornaments -->
    <use href="#cornerOrnament" x="50" y="50"/>
    <use href="#cornerOrnament" x="350" y="50"/>
    <use href="#cornerOrnament" x="50" y="350"/>
    <use href="#cornerOrnament" x="350" y="350"/>

    <!-- Main character with corrected proportions -->
    <g transform="translate(200, 250)" filter="url(#softShadow)">
        <!-- Head with proper kawaii proportions -->
        <circle cx="0" cy="-60" r="28" fill="url(#skinGradient)"/>
        
        <!-- Face features -->
        <!-- Eyes -->
        <ellipse cx="-10" cy="-65" rx="4" ry="5" fill="#333333"/>
        <ellipse cx="10" cy="-65" rx="4" ry="5" fill="#333333"/>
        <circle cx="-9" cy="-66" r="1.5" fill="white"/>
        <circle cx="11" cy="-66" r="1.5" fill="white"/>
        
        <!-- Blush -->
        <ellipse cx="-18" cy="-55" rx="4" ry="3" fill="#ffb6c1" opacity="0.6"/>
        <ellipse cx="18" cy="-55" rx="4" ry="3" fill="#ffb6c1" opacity="0.6"/>
        
        <!-- Mouth -->
        <path d="M-5,-50 Q0,-48 5,-50" fill="none" stroke="#333" stroke-width="1.5" stroke-linecap="round"/>
        
        <!-- Hair with better shape -->
        <path d="M-28,-60 Q-35,-40 -25,-25 Q-15,-10 0,-15 Q15,-10 25,-25 Q35,-40 28,-60 Q25,-75 0,-80 Q-25,-75 -28,-60 Z" 
              fill="url(#hairGradient)"/>
        <path d="M-20,-85 Q-10,-92 0,-95 Q10,-92 20,-85 L18,-80 Q10,-85 0,-87 Q-10,-85 -18,-80 Z" fill="url(#hairGradient)"/>
        
        <!-- Headbow - improved positioning -->
        <path d="M-15,-90 Q-25,-100 -35,-85 L-25,-78 L-15,-90 L0,-82 L15,-90 L25,-78 L35,-85 Q25,-100 15,-90 Q10,-105 0,-110 Q-10,-105 -15,-90 Z" 
              fill="url(#metallicGradient)" opacity="0.95"/>
        <circle cx="0" cy="-100" r="8" fill="url(#jewelGradient)"/>
        <circle cx="0" cy="-100" r="6" fill="url(#pearlGradient)" opacity="0.8"/>
        
        <!-- Neck -->
        <rect x="-8" y="-40" width="16" height="12" rx="4" fill="url(#skinGradient)"/>
        
        <!-- Main dress with corrected proportions -->
        <path d="M-50,-20 Q-60,10 -65,40 L-70,80 L70,80 L65,40 Q60,10 50,-20 Q40,-35 30,-40 L-30,-40 Q-40,-35 -50,-20 Z" 
              fill="url(#dressGradient)"/>
        
        <!-- Bodice -->
        <path d="M-30,-40 L-40,-10 L40,-10 L30,-40 Q20,-45 0,-48 Q-20,-45 -30,-40 Z" 
              fill="url(#dressGradient)"/>
        
        <!-- Corset pattern overlay -->
        <rect x="-35" y="-35" width="70" height="25" fill="url(#corsetPattern)" opacity="0.4"/>
        
        <!-- Corset details -->
        <g id="corsetDetail" stroke="url(#jewelGradient)" fill="url(#jewelGradient)" stroke-width="1.5" opacity="0.8">
            <line x1="-35" y1="-35" x2="-35" y2="-10"/>
            <line x1="-17.5" y1="-35" x2="-17.5" y2="-10"/>
            <line x1="0" y1="-35" x2="0" y2="-10"/>
            <line x1="17.5" y1="-35" x2="17.5" y2="-10"/>
            <line x1="35" y1="-35" x2="35" y2="-10"/>
            
            <!-- Bow details -->
            <path d="M-35,-25 Q-33,-22 -31,-25 Q-33,-28 -35,-25 Z"/>
            <path d="M-17.5,-25 Q-15.5,-22 -13.5,-25 Q-15.5,-28 -17.5,-25 Z"/>
            <path d="M0,-25 Q2,-22 4,-25 Q2,-28 0,-25 Z"/>
            <path d="M17.5,-25 Q19.5,-22 21.5,-25 Q19.5,-28 17.5,-25 Z"/>
            <path d="M35,-25 Q37,-22 39,-25 Q37,-28 35,-25 Z"/>
        </g>
        
        <!-- Corset lacing -->
        <path d="M-10,-35 L-10,-20 M10,-35 L10,-20" fill="none" stroke="url(#laceGradient)" stroke-width="1.2"/>
        <path d="M-10,-35 Q0,-30 10,-35" fill="none" stroke="url(#laceGradient)" stroke-width="1.2"/>
        
        <!-- Pinafore with better positioning -->
        <path d="M-25,-30 L-30,5 Q0,15 30,5 L25,-30 Q15,-35 0,-38 Q-15,-35 -25,-30 Z" 
              fill="url(#laceGradient)" opacity="0.9"/>
        
        <!-- Pinafore trim -->
        <path d="M-30,5 Q-20,2 -10,5 Q0,2 10,5 Q20,2 30,5" 
              fill="none" stroke="url(#metallicGradient)" stroke-width="1.5" opacity="0.9"/>
        
        <!-- Skirt ruffles with better flow -->
        <path d="M-65,40 Q-55,35 -45,40 Q-35,35 -25,40 Q-15,35 -5,40 Q5,35 15,40 Q25,35 35,40 Q45,35 55,40 Q65,35 65,40" 
              fill="none" stroke="url(#laceGradient)" stroke-width="4" opacity="0.9"/>
        <path d="M-65,25 Q-55,20 -45,25 Q-35,20 -25,25 Q-15,20 -5,25 Q5,20 15,25 Q25,20 35,25 Q45,20 55,25 Q65,20 65,25" 
              fill="none" stroke="url(#laceGradient)" stroke-width="3" opacity="0.8"/>
        <path d="M-65,10 Q-55,5 -45,10 Q-35,5 -25,10 Q-15,5 -5,10 Q5,5 15,10 Q25,5 35,10 Q45,5 55,10 Q65,5 65,10" 
              fill="none" stroke="url(#laceGradient)" stroke-width="2.5" opacity="0.7"/>
        
        <!-- Sleeves with better positioning -->
        <ellipse cx="-45" cy="-25" rx="15" ry="18" fill="url(#dressGradient)"/>
        <ellipse cx="45" cy="-25" rx="15" ry="18" fill="url(#dressGradient)"/>
        
        <!-- Arms with proper proportions -->
        <rect x="-52" y="-20" width="8" height="35" rx="4" fill="url(#skinGradient)"/>
        <rect x="44" y="-20" width="8" height="35" rx="4" fill="url(#skinGradient)"/>
        
        <!-- Sleeve ruffles -->
        <path d="M-55,-15 Q-48,-10 -45,-15" fill="none" stroke="url(#laceGradient)" stroke-width="3" opacity="0.9"/>
        <path d="M45,-15 Q48,-10 55,-15" fill="none" stroke="url(#laceGradient)" stroke-width="3" opacity="0.9"/>
        
        <!-- Wrist cuffs -->
        <ellipse cx="-49" cy="10" rx="5" ry="8" fill="url(#metallicGradient)" opacity="0.9"/>
        <ellipse cx="49" cy="10" rx="5" ry="8" fill="url(#metallicGradient)" opacity="0.9"/>
        <circle cx="-49" cy="10" r="1.5" fill="url(#pearlGradient)"/>
        <circle cx="49" cy="10" r="1.5" fill="url(#pearlGradient)"/>
        
        <!-- Hands -->
        <circle cx="-48" cy="18" r="4" fill="url(#skinGradient)"/>
        <circle cx="48" cy="18" r="4" fill="url(#skinGradient)"/>
        
        <!-- Collar -->
        <ellipse cx="0" cy="-35" rx="20" ry="6" fill="url(#jewelGradient)" opacity="0.9"/>
        <circle cx="-7" cy="-35" r="1.5" fill="url(#pearlGradient)"/>
        <circle cx="0" cy="-35" r="1.5" fill="url(#pearlGradient)"/>
        <circle cx="7" cy="-35" r="1.5" fill="url(#pearlGradient)"/>
        
        <!-- Necklace -->
        <path d="M-10,-35 Q0,-38 10,-35" fill="none" stroke="url(#metallicGradient)" stroke-width="2"/>
        <circle cx="-6" cy="-36" r="1.2" fill="url(#metallicGradient)"/>
        <circle cx="0" cy="-37" r="1.8" fill="url(#metallicGradient)"/>
        <circle cx="6" cy="-36" r="1.2" fill="url(#metallicGradient)"/>
        
        <!-- Legs with better proportions -->
        <rect x="-15" y="80" width="8" height="40" fill="url(#skinGradient)"/>
        <rect x="7" y="80" width="8" height="40" fill="url(#skinGradient)"/>
        
        <!-- Socks -->
        <path d="M-15,95 Q-10,90 -5,95" fill="none" stroke="url(#laceGradient)" stroke-width="2.5" opacity="0.9"/>
        <path d="M7,95 Q12,90 17,95" fill="none" stroke="url(#laceGradient)" stroke-width="2.5" opacity="0.9"/>
        <path d="M-15,105 Q-10,100 -5,105" fill="none" stroke="url(#laceGradient)" stroke-width="2" opacity="0.8"/>
        <path d="M7,105 Q12,100 17,105" fill="none" stroke="url(#laceGradient)" stroke-width="2" opacity="0.8"/>
        
        <!-- Shoes -->
        <path d="M-16,115 Q-11,110 -6,115 L-6,125 Q-11,130 -16,125 Z" fill="url(#dressGradient)"/>
        <path d="M6,115 Q11,110 16,115 L16,125 Q11,130 6,125 Z" fill="url(#dressGradient)"/>
        <path d="M-13,120 Q-8,117 -3,120 Q-8,123 -13,120 Z" fill="url(#laceGradient)"/>
        <path d="M3,120 Q8,117 13,120 Q8,123 3,120 Z" fill="url(#laceGradient)"/>
    </g>
</svg>
