<svg width="800" height="800" viewBox="0 0 400 400" xmlns="http://www.w3.org/2000/svg">
    <defs>
        <!-- Enhanced background gradient -->
        <linearGradient id="bgGradient" x1="0%" y1="0%" x2="100%" y2="100%">
            <stop offset="0%" stop-color="#FFB6D9"/>
            <stop offset="50%" stop-color="#C9E4FF"/>
            <stop offset="100%" stop-color="#FFE5F1"/>
        </linearGradient>
        
        <!-- Enhanced frame gradient -->
        <linearGradient id="frameGradient" x1="0%" y1="0%" x2="100%" y2="100%">
            <stop offset="0%" stop-color="#FF69B4"/>
            <stop offset="100%" stop-color="#FF1493"/>
        </linearGradient>
        
        <!-- Enhanced silhouette gradient -->
        <linearGradient id="silhouetteGradient" x1="0%" y1="0%" x2="100%" y2="100%">
            <stop offset="0%" stop-color="#2C1810"/>
            <stop offset="100%" stop-color="#4A2511"/>
        </linearGradient>
        
        <!-- New gradient for dress details -->
        <linearGradient id="dressAccent" x1="0%" y1="0%" x2="100%" y2="100%">
            <stop offset="0%" stop-color="#FF69B4"/>
            <stop offset="100%" stop-color="#FF1493"/>
        </linearGradient>
        
        <!-- Soft glow effect -->
        <filter id="softGlow" x="-20%" y="-20%" width="140%" height="140%">
            <feGaussianBlur in="SourceGraphic" stdDeviation="5" result="blur"/>
            <feColorMatrix in="blur" type="matrix" values="1 0 0 0 0  0 1 0 0 0  0 0 1 0 0  0 0 0 15 -5" result="glow"/>
            <feBlend in="SourceGraphic" in2="glow" mode="soft-light"/>
        </filter>
        
        <!-- Enhanced lace pattern -->
        <pattern id="lacePattern" width="40" height="40" patternUnits="userSpaceOnUse">
            <circle cx="20" cy="20" r="5" fill="#FF1493" opacity="0.4"/>
            <circle cx="10" cy="10" r="3" fill="#FF1493" opacity="0.4"/>
            <circle cx="30" cy="10" r="3" fill="#FF1493" opacity="0.4"/>
            <circle cx="10" cy="30" r="3" fill="#FF1493" opacity="0.4"/>
            <circle cx="30" cy="30" r="3" fill="#FF1493" opacity="0.4"/>
            <rect x="15" y="0" width="10" height="40" fill="#FF1493" opacity="0.2"/>
            <rect x="0" y="15" width="40" height="10" fill="#FF1493" opacity="0.2"/>
        </pattern>
        
        <!-- Polka dot pattern for dress -->
        <pattern id="polkaPattern" width="20" height="20" patternUnits="userSpaceOnUse">
            <circle cx="10" cy="10" r="3" fill="#FFFFFF" opacity="0.6"/>
        </pattern>
        
        <!-- Sparkle filter -->
        <filter id="sparkle" x="-50%" y="-50%" width="200%" height="200%">
            <feTurbulence type="fractalNoise" baseFrequency="0.05" numOctaves="1" result="noise"/>
            <feDisplacementMap in="SourceGraphic" in2="noise" scale="2" xChannelSelector="R" yChannelSelector="G"/>
        </filter>
        
        <!-- Shimmer effect -->
        <filter id="shimmer">
            <feTurbulence type="fractalNoise" baseFrequency="0.01 0.1" numOctaves="1" result="turbulence"/>
            <feDisplacementMap in="SourceGraphic" in2="turbulence" scale="3" xChannelSelector="R" yChannelSelector="G"/>
        </filter>
    </defs>
    
    <!-- Background -->
    <rect width="400" height="400" fill="url(#bgGradient)"/>
    
    <!-- Enhanced decorative frame -->
    <rect x="40" y="40" width="320" height="320" rx="20" fill="none" stroke="url(#frameGradient)" stroke-width="10" opacity="0.9"/>
    <rect x="40" y="40" width="320" height="320" rx="20" fill="none" stroke="url(#lacePattern)" stroke-width="10" opacity="0.6"/>
    
    <!-- Enhanced decorative corner ribbon elements -->
    <g opacity="0.9">
        <!-- Top-left ribbon -->
        <path d="M30,50 L40,40 L50,30 Q55,35 50,40 L45,45 Q50,50 45,55 L40,50 Q35,55 30,50 Z" fill="#FF1493"/>
        <path d="M30,50 L40,40 L50,30" fill="none" stroke="#FF69B4" stroke-width="2"/>
        
        <!-- Top-right ribbon -->
        <path d="M370,50 L360,40 L350,30 Q345,35 350,40 L355,45 Q350,50 355,55 L360,50 Q365,55 370,50 Z" fill="#FF1493"/>
        <path d="M370,50 L360,40 L350,30" fill="none" stroke="#FF69B4" stroke-width="2"/>
        
        <!-- Bottom-left ribbon -->
        <path d="M30,350 L40,360 L50,370 Q55,365 50,360 L45,355 Q50,350 45,345 L40,350 Q35,345 30,350 Z" fill="#FF1493"/>
        <path d="M30,350 L40,360 L50,370" fill="none" stroke="#FF69B4" stroke-width="2"/>
        
        <!-- Bottom-right ribbon -->
        <path d="M370,350 L360,360 L350,370 Q345,365 350,360 L355,355 Q350,350 355,345 L360,350 Q365,345 370,350 Z" fill="#FF1493"/>
        <path d="M370,350 L360,360 L350,370" fill="none" stroke="#FF69B4" stroke-width="2"/>
    </g>
    
    <!-- Background decorative elements -->
    <g opacity="0.3">
        <circle cx="50" cy="50" r="15" fill="#FF69B4"/>
        <circle cx="350" cy="350" r="12" fill="#FF1493"/>
        <circle cx="350" cy="50" r="10" fill="#FF69B4"/>
        <circle cx="50" cy="350" r="8" fill="#FF1493"/>
    </g>
    
    <!-- Enhanced Lolita fashion silhouette -->
    <g transform="translate(200, 220)" filter="url(#softGlow)">
        <!-- Legs with enhanced frilly socks -->
        <rect x="-12" y="70" width="10" height="45" fill="url(#silhouetteGradient)"/>
        <rect x="2" y="70" width="10" height="45" fill="url(#silhouetteGradient)"/>
        
        <!-- Enhanced frilly sock details -->
        <path d="M-12,105 Q-7,100 -2,105" fill="none" stroke="#FFFFFF" stroke-width="2" opacity="0.7"/>
        <path d="M2,105 Q7,100 12,105" fill="none" stroke="#FFFFFF" stroke-width="2" opacity="0.7"/>
        
        <!-- Additional sock ruffles -->
        <path d="M-12,95 Q-7,90 -2,95" fill="none" stroke="#FFFFFF" stroke-width="1.5" opacity="0.5"/>
        <path d="M2,95 Q7,90 12,95" fill="none" stroke="#FFFFFF" stroke-width="1.5" opacity="0.5"/>
        
        <!-- Enhanced shoes with bows -->
        <ellipse cx="-7" cy="118" rx="10" ry="6" fill="url(#silhouetteGradient)"/>
        <ellipse cx="7" cy="118" rx="10" ry="6" fill="url(#silhouetteGradient)"/>
        <path d="M-12,118 Q-7,115 -2,118 Q-7,121 -12,118 Z" fill="#FF1493"/>
        <path d="M2,118 Q7,115 12,118 Q7,121 2,118 Z" fill="#FF1493"/>
        
        <!-- Enhanced bell-shaped JSK dress with petticoat -->
        <path d="M-60,0 Q-65,20 -70,40 L-75,70 L75,70 L70,40 Q65,20 60,0 Q55,-20 50,-30 L-50,-30 Q-55,-20 -60,0 Z" 
              fill="url(#silhouetteGradient)"/>
        
        <!-- Enhanced dress bodice -->
        <path d="M-30,-30 L-40,0 L40,0 L30,-30 Q20,-40 0,-42 Q-20,-40 -30,-30 Z" 
              fill="url(#silhouetteGradient)"/>
        
        <!-- Enhanced white apron/pinafore detail -->
        <path d="M-25,-20 L-30,10 Q0,20 30,10 L25,-20 Q15,-28 0,-30 Q-15,-28 -25,-20 Z" 
              fill="#FFFFFF" opacity="0.85"/>
        
        <!-- Polka dot pattern on apron -->
        <path d="M-25,-20 L-30,10 Q0,20 30,10 L25,-20 Q15,-28 0,-30 Q-15,-28 -25,-20 Z" 
              fill="url(#polkaPattern)" opacity="0.3"/>
        
        <!-- Enhanced puffed sleeves -->
        <ellipse cx="-35" cy="-20" rx="15" ry="18" fill="url(#silhouetteGradient)"/>
        <ellipse cx="35" cy="-20" rx="15" ry="18" fill="url(#silhouetteGradient)"/>
        
        <!-- Sleeve ruffles -->
        <path d="M-45,-15 Q-40,-10 -35,-15" fill="none" stroke="#FFFFFF" stroke-width="2" opacity="0.7"/>
        <path d="M35,-15 Q40,-10 45,-15" fill="none" stroke="#FFFFFF" stroke-width="2" opacity="0.7"/>
        
        <!-- Arms -->
        <rect x="-48" y="-10" width="8" height="25" rx="4" fill="url(#silhouetteGradient)"/>
        <rect x="40" y="-10" width="8" height="25" rx="4" fill="url(#silhouetteGradient)"/>
        
        <!-- Neck -->
        <rect x="-8" y="-50" width="16" height="12" rx="4" fill="url(#silhouetteGradient)"/>
        
        <!-- Head -->
        <circle cx="0" cy="-60" r="22" fill="url(#silhouetteGradient)"/>
        
        <!-- Enhanced long hair flowing down -->
        <path d="M-22,-60 Q-30,-55 -28,-45 L-25,-30 Q-22,-20 -18,-30 L-15,-45 Q-12,-55 -22,-60 Z" fill="url(#silhouetteGradient)"/>
        <path d="M22,-60 Q30,-55 28,-45 L25,-30 Q22,-20 18,-30 L15,-45 Q12,-55 22,-60 Z" fill="url(#silhouetteGradient)"/>
        
        <!-- Enhanced twin tails / pigtails hairstyle -->
        <ellipse cx="-28" cy="-55" rx="12" ry="25" fill="url(#silhouetteGradient)"/>
        <ellipse cx="28" cy="-55" rx="12" ry="25" fill="url(#silhouetteGradient)"/>
        
        <!-- Hair shine effect -->
        <path d="M-25,-75 Q-20,-80 -15,-75" fill="none" stroke="#FFFFFF" stroke-width="1" opacity="0.3"/>
        <path d="M15,-75 Q20,-80 25,-75" fill="none" stroke="#FFFFFF" stroke-width="1" opacity="0.3"/>
        
        <!-- Enhanced bangs -->
        <path d="M-18,-75 Q-10,-80 0,-82 Q10,-80 18,-75 L15,-70 Q10,-72 0,-74 Q-10,-72 -15,-70 Z" fill="url(#silhouetteGradient)"/>
        
        <!-- Enhanced hair ribbons/bows -->
        <path d="M-38,-60 Q-48,-55 -43,-45 Q-38,-50 -33,-55 Q-38,-60 -38,-60 Z" fill="#FF1493"/>
        <path d="M38,-60 Q48,-55 43,-45 Q38,-50 33,-55 Q38,-60 38,-60 Z" fill="#FF1493"/>
        
        <!-- Enhanced large decorative headbow -->
        <path d="M-15,-80 Q-25,-85 -30,-75 L-20,-70 L-10,-80 L0,-75 L10,-80 L20,-70 L30,-75 Q25,-85 15,-80 Q10,-90 0,-92 Q-10,-90 -15,-80 Z" 
              fill="#FF1493" opacity="0.9"/>
        
        <!-- Headbow center with sparkle -->
        <circle cx="0" cy="-85" r="5" fill="#FFFFFF" opacity="0.8">
            <animate attributeName="r" values="5;6;5" dur="2s" repeatCount="indefinite"/>
        </circle>
        
        <!-- Enhanced lace collar -->
        <ellipse cx="0" cy="-40" rx="18" ry="6" fill="#FFFFFF" opacity="0.9"/>
        
        <!-- Ruffle details on skirt -->
        <path d="M-70,40 Q-60,35 -50,40 Q-40,35 -30,40 Q-20,35 -10,40 Q0,35 10,40 Q20,35 30,40 Q40,35 50,40 Q60,35 70,40" 
              fill="none" stroke="#FFFFFF" stroke-width="3" opacity="0.7"/>
        
        <!-- Additional skirt ruffles -->
        <path d="M-70,25 Q-60,20 -50,25 Q-40,20 -30,25 Q-20,20 -10,25 Q0,20 10,25 Q20,20 30,25 Q40,20 50,25 Q60,20 70,25" 
              fill="none" stroke="#FFFFFF" stroke-width="2" opacity="0.5"/>
        
        <!-- Heart accessory -->
        <path d="M-5,-52 Q-10,-57 -5,-62 Q0,-57 5,-62 Q10,-57 5,-52 Q0,-47 -5,-52 Z" fill="#FF69B4">
            <animate attributeName="fill" values="#FF69B4;#FF1493;#FF69B4" dur="3s" repeatCount="indefinite"/>
        </path>
        
        <!-- Additional accessories -->
        <!-- Necklace -->
        <path d="M-10,-40 Q0,-45 10,-40" fill="none" stroke="#FF69B4" stroke-width="1.5"/>
        <circle cx="0" cy="-43" r="2" fill="#FF69B4"/>
        
        <!-- Wrist accessories -->
        <circle cx="-44" cy="5" r="3" fill="#FF1493"/>
        <circle cx="44" cy="5" r="3" fill="#FF1493"/>
        
        <!-- Dress lace trim -->
        <path d="M-50,-25 Q-45,-20 -40,-25" fill="none" stroke="#FFFFFF" stroke-width="1.5" opacity="0.6"/>
        <path d="M40,-25 Q45,-20 50,-25" fill="none" stroke="#FFFFFF" stroke-width="1.5" opacity="0.6"/>
    </g>
    
    <!-- Enhanced floating hearts with varied animations -->
    <g opacity="0.85">
        <path d="M100,100 Q110,90 100,80 Q90,90 100,100 Z" fill="#FF1493">
            <animate attributeName="opacity" values="0.7;1;0.7" dur="3s" repeatCount="indefinite"/>
            <animateTransform attributeName="transform" type="translate" values="0,0;0,-10;0,0" dur="4s" repeatCount="indefinite"/>
        </path>
        <path d="M300,150 Q310,140 300,130 Q290,140 300,150 Z" fill="#FF69B4">
            <animate attributeName="opacity" values="0.7;1;0.7" dur="4s" repeatCount="indefinite"/>
            <animateTransform attributeName="transform" type="translate" values="0,0;0,-15;0,0" dur="5s" repeatCount="indefinite"/>
        </path>
        <path d="M150,250 Q160,240 150,230 Q140,240 150,250 Z" fill="#FF1493">
            <animate attributeName="opacity" values="0.7;1;0.7" dur="5s" repeatCount="indefinite"/>
            <animateTransform attributeName="transform" type="translate" values="0,0;0,-12;0,0" dur="6s" repeatCount="indefinite"/>
        </path>
        <path d="M320,280 Q330,270 320,260 Q310,270 320,280 Z" fill="#FF69B4">
            <animate attributeName="opacity" values="0.8;1;0.8" dur="3.5s" repeatCount="indefinite"/>
            <animateTransform attributeName="transform" type="translate" values="0,0;0,-8;0,0" dur="4.5s" repeatCount="indefinite"/>
        </path>
        <path d="M80,200 Q90,190 80,180 Q70,190 80,200 Z" fill="#FF1493">
            <animate attributeName="opacity" values="0.75;1;0.75" dur="4.5s" repeatCount="indefinite"/>
            <animateTransform attributeName="transform" type="translate" values="0,0;0,-14;0,0" dur="5.5s" repeatCount="indefinite"/>
        </path>
        
        <!-- Additional floating elements -->
        <circle cx="250" cy="80" r="4" fill="#FF69B4">
            <animate attributeName="cy" values="80;70;80" dur="3s" repeatCount="indefinite"/>
            <animate attributeName="opacity" values="0.5;1;0.5" dur="3s" repeatCount="indefinite"/>
        </circle>
        
        <circle cx="180" cy="320" r="3" fill="#FF1493">
            <animate attributeName="cx" values="180;190;180" dur="4s" repeatCount="indefinite"/>
            <animate attributeName="opacity" values="0.6;1;0.6" dur="4s" repeatCount="indefinite"/>
        </circle>
        
        <!-- Sparkle elements -->
        <circle cx="120" cy="180" r="2" fill="#FFFFFF">
            <animate attributeName="r" values="2;3;2" dur="1.5s" repeatCount="indefinite"/>
            <animate attributeName="opacity" values="0.3;0.8;0.3" dur="1.5s" repeatCount="indefinite"/>
        </circle>
        
        <circle cx="280" cy="220" r="1.5" fill="#FFFFFF">
            <animate attributeName="r" values="1.5;2.5;1.5" dur="2s" repeatCount="indefinite"/>
            <animate attributeName="opacity" values="0.4;0.9;0.4" dur="2s" repeatCount="indefinite"/>
        </circle>
    </g>
</svg>
